<svg version="1.2" xmlns="http://www.w3.org/2000/svg" viewBox="0 0 512 512" width="32" height="32">
	<title>food(1)</title>
	<style>
		.s0 { fill: #424242 } 
	</style>
	<path id="Path 0" fill-rule="evenodd" class="s0" d="m349.7 0.5l8.4 4.1c6.1 3 9.8 5.7 13.3 9.5 2.7 3 6.5 8.8 12.1 20.4l0.3 200.5c0.2 178.4 0 201.2-1.3 206.5-0.9 3.3-2.8 8-4.2 10.5-1.5 2.5-4.9 6.9-7.7 9.8-3.3 3.5-7.5 6.6-12.1 8.8-4.1 1.9-9.9 3.7-14 4.3-4.4 0.7-43 1.1-198.5 1.1v15.3c0.1 15.2 0.1 15.2-5.3 20.7h-62.7l-2.5-3c-2.4-2.9-2.5-3.5-2.5-33h-13.5c-9.8 0-14.5-0.4-17-1.5q-3.5-1.5-5-5c-1.2-2.7-1.5-7.8-1.5-40.5h-2.5c-1.4 0-4.6-0.7-7.2-1.6-2.7-0.9-6.8-2.6-9.2-3.8-2.5-1.1-6.2-3.9-8.4-6.1-2.2-2.2-5.1-6.5-6.5-9.5-2-4.5-2.4-6.6-2-11.5 0.3-3.9 1.3-7.6 3-10.5 1.4-2.5 4.7-6.5 7.4-8.9 2.7-2.4 7.2-5.4 9.9-6.7 2.8-1.3 7.4-2.9 15.5-4.9v-18.5l-7-1.5c-3.8-0.8-8.8-2.4-11-3.5-2.2-1.1-6.1-3.9-8.6-6.2-2.6-2.4-5.5-6.1-6.6-8.3-1.2-2.2-2.3-6.5-2.6-9.5-0.4-4 0-6.9 1.3-10.5 1.1-3 3.9-7.2 7.1-10.5 3.6-3.9 7.3-6.5 12.5-8.9 4.1-1.9 9.1-3.7 15-4.6l-0.6-18.8-6.5-1.4c-3.6-0.7-8.3-2.2-10.5-3.2-2.2-1.1-6-3.7-8.5-5.9-2.5-2.1-5.7-6.2-7.2-9-2.2-4.1-2.8-6.5-2.8-11.7 0-4.8 0.6-7.5 2.1-10.2 1.2-2.1 3.3-5.3 4.8-7.2 1.4-1.9 5.3-5.2 8.6-7.3 3.3-2.1 8-4.5 10.5-5.2 2.5-0.8 5.7-1.7 10-2.6v-18.5l-6.2-1.2c-3.5-0.7-8.8-2.5-11.8-4-3-1.5-7.3-4.6-9.5-6.9-2.2-2.2-5-6-6.2-8.2-1.7-3.1-2.3-5.9-2.3-10.7 0-4.4 0.6-7.7 1.9-10.3 1-2 3.7-5.7 5.9-8.2 2.2-2.5 6.4-6 9.3-7.7 3-1.8 8.4-4 18.9-6.8v-18l-5.7-1.3c-3.2-0.6-8.3-2.4-11.3-3.8-3-1.4-7.4-4.4-9.8-6.7-2.4-2.3-5.3-6-6.4-8.2-1.2-2.2-2.3-6.7-2.6-10-0.5-5.1-0.1-6.9 2.1-11.5 1.4-3 4.7-7.6 7.4-10.1 2.6-2.5 7.1-5.7 9.8-7.1 2.8-1.4 7.6-3.2 16.5-5.3v-13.8c0-7.5 0.5-14.9 1.1-16.4 0.6-1.6 1.8-3.6 2.6-4.6 1.5-1.6 9.7-1.7 310-1.2zm-294.7 37.5c9.7 3.2 14.7 5.8 17.3 7.8 2.9 2.3 5.7 5.6 7.3 8.7 1.4 3 2.4 6.7 2.4 9.2 0 3.2-0.6 4.9-2.5 6.8-1.5 1.6-3.5 2.5-5.5 2.5-1.6 0-4.1-0.6-5.5-1.3-1.4-0.6-2.9-2.2-3.5-3.5-0.5-1.2-1-2.9-1-3.7 0-0.8-1.3-2.6-3-4-1.6-1.4-3.7-2.5-4.5-2.5-1.3 0-1.5 4-1.2 31.1l0.2 31.2c6.2 1.8 9.5 3.1 11.3 4 1.7 0.9 5.1 3.4 7.4 5.4 2.2 2.1 4.9 5.6 5.9 7.8 1 2.2 1.9 5.7 1.9 7.7 0 2.1-0.4 4.7-1 5.8-0.5 1.1-2.6 2.7-4.5 3.5-3.1 1.3-3.9 1.3-7 0-1.9-0.8-3.8-2.1-4.2-2.8-0.4-0.6-1-2.5-1.3-4.2-0.4-1.9-1.8-3.8-4-5.3-1.9-1.2-3.8-2.2-4.2-2.2-0.5 0-0.8 14.2-0.8 31.5 0 29.3 0.1 31.5 1.8 31.5 0.9 0 4.4 1.3 7.7 2.8 3.3 1.6 7.8 4.4 9.9 6.3 2.2 1.9 4.7 5.2 5.7 7.4 1 2.2 1.9 5.9 1.9 8.3 0 3.3-0.6 4.8-2.9 7.2-1.9 1.9-4 3-5.8 3-1.5 0.1-4-0.8-5.5-2-1.7-1.2-3.2-3.6-3.8-6-0.7-2.9-1.9-4.6-4.2-6-1.8-1.1-3.6-2-4-2-0.5 0-0.8 14.2-0.8 31.5v31.5c4.3 1 7.5 2.2 10 3.2 2.5 1.1 6.3 3.4 8.5 5.2 2.2 1.8 5 5.4 6.3 7.9 1.2 2.7 2.2 6.5 2.2 8.9 0 2.4-0.6 5-1.3 5.9-0.7 0.9-2.2 2.1-3.4 2.7-1.3 0.7-3.4 1.2-4.8 1.2-1.4 0-3.8-1.3-5.5-3-1.6-1.6-3-3.8-3-4.8 0-0.9-1-2.7-2.2-3.8-1.3-1.2-3.3-2.7-4.5-3.3l-2.3-1.1 0.5 63.3c6.2 1.8 9.5 3.1 11.3 4 1.7 0.9 5.1 3.4 7.4 5.4 2.2 2.1 4.9 5.6 5.9 7.8 1 2.2 1.9 5.9 1.9 8.2 0 3.2-0.6 4.9-2.5 6.8-1.7 1.8-3.5 2.5-6.2 2.5-2.4 0-4.6-0.7-6-2-1.3-1.1-2.6-3.4-3-5.2-0.5-1.7-2.1-4.2-3.8-5.4-1.6-1.3-3.6-2.4-4.2-2.4-1 0-1.3 7.7-1.3 35v35c265.5 0 287.2-0.2 291.5-1.4 2.8-0.9 6.9-3.2 9.5-5.4 2.7-2.3 5.5-6.1 7-9.3l2.5-5.4v-396c-3.9-7.7-6.5-11.4-8.2-13.2-1.8-1.8-5.4-4.3-8-5.5l-4.8-2.3-289.5-0.5zm-30.7 22.5c-1.8 1.4-3.9 3.8-4.8 5.5-1 2-1.2 3.7-0.6 5.2 0.5 1.3 2.3 3.5 4 5 1.7 1.5 4.8 3.2 6.9 3.8 2 0.5 4.3 1 5 1 0.9 0 1.2-3.2 1.2-12.5 0-11.3-0.1-12.5-1.7-12.5-1 0.1-2.9 0.5-4.3 1.1-1.3 0.5-3.9 2.1-5.7 3.4zm-3.7 86.3c-2.1 3-2.4 4.1-1.7 6.2 0.5 1.3 2 3.5 3.3 4.7 1.3 1.2 4 2.9 6.1 3.7 2 0.9 4.6 1.6 5.7 1.6 1.9 0 2-0.7 2-12.5 0-9.4-0.3-12.5-1.2-12.5-0.7-0.1-3.6 1.1-6.4 2.6-2.8 1.4-6.3 4.2-7.8 6.2zm0.7 81.5c-2.4 2.7-3.1 4.3-2.7 5.9 0.4 1.3 1.2 3.2 1.9 4.3 0.6 1.1 3.2 3 5.6 4.2 2.4 1.2 5.7 2.4 7.2 2.7l2.7 0.6c0-20.2-0.3-26-0.7-26-0.4 0-3 1-5.8 2.3-2.7 1.3-6.4 4-8.2 6zm9.2 75.8c-2.7 1-6 2.9-7.3 4.1-1.3 1.3-3 3.5-3.8 5-1.2 2.4-1.2 3.2 0.1 5.8 0.9 1.6 2.8 3.8 4.3 4.9 1.5 1 4.6 2.5 7 3.2 2.3 0.8 4.4 1.1 4.7 0.9 0.3-0.3 0.4-6.2 0.3-13.2l-0.3-12.6zm-10.5 90.1c-1.1 1.9-1.7 4.1-1.3 5.2 0.3 1.1 1.5 3.1 2.7 4.4 1.2 1.3 3.9 3.2 6.1 4.3 2.2 1 5 1.8 6.3 1.8 2.2 0 2.2-0.2 2.2-12.5 0-11.2-0.1-12.5-1.7-12.4-1 0-4.1 1.3-7 3-2.9 1.6-6.2 4.4-7.3 6.2zm72 99.7h36v-18h-36zm365.8-438.9c2.2 0 4 0.8 5.7 2.4 2.2 2.2 2.5 3.4 2.5 15.5h6c3.3 0 6.9 0.5 8 1 1.1 0.6 2.7 2.4 3.5 4 1.2 2.3 1.5 6.7 1.5 32h10.8c10.4 0 10.8 0 16.3 5.5l-0.1 134.5-2.9 3c-1.7 1.8-3.9 3-5.5 3-1.4 0-3.6-0.5-4.8-1.1-1.3-0.7-2.8-1.9-3.5-2.8-0.9-1.2-1.2-16.2-1.3-124.1h-9l-0.5 290.5-2.2 6c-1.3 3.3-5.5 10.8-9.3 16.5-6.1 9.3-6.9 11.1-7 15.3 0 3.7-0.5 5.3-2.4 7.2-1.8 1.9-3.5 2.5-6.3 2.5-2.1 0-4.5-0.6-5.4-1.2-0.8-0.7-2.1-2.3-2.7-3.5-0.6-1.2-1.2-4.1-1.2-6.3 0-3.2-1.1-5.7-5.8-12.7-3.2-4.8-6.7-10.3-7.7-12.3-1-1.9-2.4-5.7-3.1-8.5-1.1-4-1.3-36.3-1.4-173.2 0-110.6 0.4-169 1-170.5 0.6-1.2 2.2-2.8 3.5-3.5 1.4-0.7 5-1.3 13.5-1.3v-5.5c0-3 0.6-6.6 1.3-8 0.7-1.3 2.1-2.9 3.2-3.4 1.1-0.5 3.5-1 5.3-1zm-9.8 54.9h18v-18h-18zm0.5 306.5c3.5 7 5.4 10.2 6.4 11.5 1.5 2 2.2 2.3 3.3 1.4 0.7-0.6 2.7-3.6 4.3-6.5l3-5.4 0.6-289.5h-18.1zm-115.5-370.5l2.5 2.5c1.8 1.8 2.5 3.6 2.5 6.3 0 2.1-0.6 4.5-1.3 5.3-0.6 0.9-2.2 2.1-3.4 2.8-1.7 0.8-31.1 1.1-114.3 1.1-72.7 0-112.7-0.3-114-1-1.1-0.5-2.7-2.5-3.5-4.5-1.3-3.1-1.3-3.8 0.1-6.9 0.9-1.8 2.4-3.8 3.3-4.4 1.1-0.8 36-1.1 228.1-1.2zm-226 36h29.5c23.1 0 30.1 0.3 32.3 1.4 1.5 0.8 3.3 2.6 4 4 0.6 1.5 1.2 3.3 1.2 4.1 0 0.9-0.5 2.6-1 3.8-0.6 1.2-2.4 3-4 4-2.7 1.6-6.2 1.7-62 1.7l-3.1-2.7c-2.3-2.1-3.1-3.7-3.2-6.6-0.2-3.2 0.4-4.3 3.1-6.7zm99.8 0h125.1l3 3c2.2 2.1 3 3.9 3 6.5 0 2.2-0.8 4.4-4.8 9l-61.8 0.2c-48.3 0.2-62.5 0-64.8-1-1.6-0.7-3.5-2.1-4.2-3.2-0.8-1.1-1.3-3.5-1.3-5.4q0.1-3.3 2.9-6.2zm12.4 55.1c72.9-0.1 112.6 0.2 114 0.9 1.3 0.5 2.9 2.1 3.5 3.5 1 1.9 1.3 32.5 1.3 282.5l-5.9 6h-225.1l-6.5-5.9-0.3-139c-0.2-130.1-0.1-139.3 1.5-142.5 1-1.8 2.7-3.8 3.8-4.4 1.4-0.7 37-1.1 113.7-1.1zm-100.2 54.9h55v-36h-55zm73 0h55v-36h-55zm73 0h55v-36h-55zm-146 55l54.5-0.5v-36l-54.5-0.5zm73 0h55l-0.5-36.5-54.4-0.6zm72.8-17.8l0.2 17.8h55v-37c-41.6 0-54.1 0.3-54.5 0.7-0.5 0.4-0.8 8.7-0.7 18.5zm-145.8 72.8l54.5-0.5v-36l-54.5-0.5zm73 0l54.5-0.5 0.3-36.5h-54.8zm73.5-0.5l54.5 0.5v-37h-55.1zm-146.5 54.5h55v-36h-55zm73 0h55v-36h-55zm73 0h55v-36h-55zm-146 55h55v-36h-55zm73 0h55v-36h-55zm73 0h55v-36h-55z"/>
</svg>